/* XPM */
static char * molecule_xpm[] = {
"32 32 147 2",
"  	g #FFFFFF",
". 	g #F7F7F7",
"+ 	g #EBEBEB",
"@ 	g #E6E6E6",
"# 	g #E5E5E5",
"$ 	g #E9E9E9",
"% 	g #F4F4F4",
"& 	g #F3F3F3",
"* 	g #E4E4E4",
"= 	g #D3D3D3",
"- 	g #8C8C8C",
"; 	g #868686",
"> 	g #C9C9C9",
", 	g #EEEEEE",
"' 	g #FBFBFB",
") 	g #BBBBBB",
"! 	g #101010",
"~ 	g #000000",
"{ 	g #060606",
"] 	g #A1A1A1",
"^ 	g #F6F6F6",
"/ 	g #F2F2F2",
"( 	g #4A4A4A",
"_ 	g #232323",
": 	g #3F3F3F",
"< 	g #161616",
"[ 	g #EDEDED",
"} 	g #F9F9F9",
"| 	g #A2A2A2",
"1 	g #030303",
"2 	g #7E7E7E",
"3 	g #FEFEFE",
"4 	g #B2B2B2",
"5 	g #2A2A2A",
"6 	g #484848",
"7 	g #9F9F9F",
"8 	g #E7E7E7",
"9 	g #F1F1F1",
"0 	g #454545",
"a 	g #CECECE",
"b 	g #EFEFEF",
"c 	g #FDFDFD",
"d 	g #D6D6D6",
"e 	g #898989",
"f 	g #797979",
"g 	g #B5B5B5",
"h 	g #EAEAEA",
"i 	g #2D2D2D",
"j 	g #FCFCFC",
"k 	g #171717",
"l 	g #808080",
"m 	g #E3E3E3",
"n 	g #303030",
"o 	g #F5F5F5",
"p 	g #646464",
"q 	g #090909",
"r 	g #DFDFDF",
"s 	g #D9D9D9",
"t 	g #C3C3C3",
"u 	g #575757",
"v 	g #5E5E5E",
"w 	g #050505",
"x 	g #DDDDDD",
"y 	g #ABABAB",
"z 	g #787878",
"A 	g #BEBEBE",
"B 	g #686868",
"C 	g #F0F0F0",
"D 	g #8F8F8F",
"E 	g #6D6D6D",
"F 	g #5D5D5D",
"G 	g #9B9B9B",
"H 	g #E8E8E8",
"I 	g #6E6E6E",
"J 	g #A6A6A6",
"K 	g #E2E2E2",
"L 	g #717171",
"M 	g #979797",
"N 	g #E0E0E0",
"O 	g #656565",
"P 	g #D5D5D5",
"Q 	g #757575",
"R 	g #FAFAFA",
"S 	g #555555",
"T 	g #323232",
"U 	g #D8D8D8",
"V 	g #4D4D4D",
"W 	g #DCDCDC",
"X 	g #6C6C6C",
"Y 	g #BCBCBC",
"Z 	g #2F2F2F",
"` 	g #595959",
" .	g #C8C8C8",
"..	g #DEDEDE",
"+.	g #D1D1D1",
"@.	g #9A9A9A",
"#.	g #696969",
"$.	g #E1E1E1",
"%.	g #DBDBDB",
"&.	g #7B7B7B",
"*.	g #3C3C3C",
"=.	g #1E1E1E",
"-.	g #666666",
";.	g #5F5F5F",
">.	g #939393",
",.	g #C4C4C4",
"'.	g #A5A5A5",
").	g #191919",
"!.	g #838383",
"~.	g #313131",
"{.	g #878787",
"].	g #5A5A5A",
"^.	g #D4D4D4",
"/.	g #BFBFBF",
"(.	g #8D8D8D",
"_.	g #6B6B6B",
":.	g #272727",
"<.	g #1B1B1B",
"[.	g #1C1C1C",
"}.	g #DADADA",
"|.	g #8A8A8A",
"1.	g #0C0C0C",
"2.	g #010101",
"3.	g #0B0B0B",
"4.	g #292929",
"5.	g #3B3B3B",
"6.	g #424242",
"7.	g #545454",
"8.	g #4F4F4F",
"9.	g #343434",
"0.	g #070707",
"a.	g #A8A8A8",
"b.	g #D0D0D0",
"c.	g #414141",
"d.	g #B0B0B0",
"e.	g #777777",
"f.	g #585858",
"g.	g #747474",
"h.	g #959595",
"i.	g #B7B7B7",
"j.	g #F8F8F8",
"k.	g #949494",
"l.	g #262626",
"m.	g #ACACAC",
"n.	g #0A0A0A",
"o.	g #B3B3B3",
"p.	g #8B8B8B",
"                                . + @ # $ %                     ",
"                              & * = - ; > # ,                   ",
"                            ' # ) ! ~ ~ { ] # ^                 ",
"                            / # ( ~ ~ ~ ~ _ @ ,                 ",
"                            / # : ~ ~ ~ ~ < @ [                 ",
"                            } # | 1 ~ ~ ~ 2 # &     3 3         ",
"                              , # 4 5 6 7 # $ 3 . + # * 8 9 3   ",
"                                [ # 0 a # b c % # d e f g # h 3 ",
"                                b @ i # +   j # > k ~ ~ ~ l * / ",
"                              c + m n # b   o # p ~ ~ ~ ~ q r h ",
"                      c ^ 9 , , s t u m &   o # v ~ ~ ~ ~ w x h ",
"                    o , , , b b d y z d b   } # A w ~ ~ ~ B # C ",
"        3         & , , % '   ' # D e d @ % $ # B p E F G # H c ",
"  c C 8 * @ [ ' ^ , , }   3 . [ x I J r 8 s K p L # # # # , j   ",
"j 8 * J z M N # $ , .   ' b , m d O t # K P B Q # h R R 3       ",
", # S ~ ~ ~ T U s , 3 c b , ^ + r V = W * X ; * h c   3         ",
"@ Y ~ ~ ~ ~ ~ e d * R . , ^ ^ H # Z s P ` 2 d 8 } [ # * @ b j   ",
"# g ~ ~ ~ ~ ~ v  .s * ..W H # +.@.Z d #.- $.%.9 @ N M &.J # 8 j ",
"+ * *.~ ~ ~ =.- -.u ;.>.,...'._ 5 w ).!.x N ..* ..~.~ ~ ~ S # [ ",
"R @ r {.].z ^.K d d /.(._.u Z :.<.~ [.E K r }.K |.~ ~ ~ ~ ~ Y @ ",
"  R + # # # $ . h r %.K # K [.1.2.3.4.5.6.7.8.6 9.~ ~ ~ ~ ~ g # ",
"      c R j     j [ h h # $.B 0.< 4.4.a...%.# # d =.~ ~ ~ *.m + ",
"                  c C h H d b.c.F -.d.# $ ^ . % # ^.e.f.; r @ R ",
"                    3 % # %.g.h.N * # C 3       . $ * # * + R   ",
"                3 b # # # i.c.* h j.c               j } c       ",
"              3 + # '.` ].n > * R                               ",
"              o # - 2.~ ~ 2.k.# ^                               ",
"              b # l.~ ~ ~ ~ n # C                               ",
"              b # T ~ ~ ~ ~ *.# C                               ",
"              j.* m.n.~ ~ 1.o.# }                               ",
"                b # a e p.b.# C                                 ",
"                  o h # # h ^                                   "};
