<?xml version="1.0" encoding="utf-8"?>
<!-- Generator: Adobe Illustrator 14.0.0, SVG Export Plug-In . SVG Version: 6.00 Build 43363)  -->
<!DOCTYPE svg PUBLIC "-//W3C//DTD SVG 1.1//EN" "http://www.w3.org/Graphics/SVG/1.1/DTD/svg11.dtd">
<svg version="1.1"
	 id="svg3186" sodipodi:version="0.32" xmlns:inkscape="http://www.inkscape.org/namespaces/inkscape" xmlns:rdf="http://www.w3.org/1999/02/22-rdf-syntax-ns#" sodipodi:docbase="/home/david/Progetti/sandbox" xmlns:svg="http://www.w3.org/2000/svg" sodipodi:docname="player_stop.svg" inkscape:version="0.45" xmlns:sodipodi="http://sodipodi.sourceforge.net/DTD/sodipodi-0.dtd" sodipodi:modified="true" xmlns:dc="http://purl.org/dc/elements/1.1/" xmlns:cc="http://web.resource.org/cc/" inkscape:output_extension="org.inkscape.output.svg.inkscape"
	 xmlns="http://www.w3.org/2000/svg" xmlns:xlink="http://www.w3.org/1999/xlink" x="0px" y="0px" width="128px" height="128px"
	 viewBox="0 0 128 128" enable-background="new 0 0 128 128" xml:space="preserve">
<sodipodi:namedview  height="128px" width="128px" id="base" inkscape:window-y="112" inkscape:window-x="225" inkscape:window-height="581" inkscape:window-width="792" gridspacingy="8px" gridspacingx="8px" showgrid="true" inkscape:current-layer="layer1" inkscape:document-units="px" inkscape:cy="56.281828" inkscape:cx="62" inkscape:zoom="4" inkscape:pageshadow="2" inkscape:pageopacity="0.0" objecttolerance="10" guidetolerance="10" gridtolerance="10000" pagecolor="#ffffff" borderopacity="1.0" bordercolor="#666666">
	</sodipodi:namedview>
<g id="layer1" inkscape:groupmode="layer" inkscape:label="Layer 1">
	<g>
		<g transform="matrix(1.0833333,0,0,1.0833333,1.1666686,1.1666686)" opacity="0.8">
			
				<image overflow="visible" width="125" height="125" xlink:href="2B0CF1BA.png"  transform="matrix(0.9231 0 0 0.9231 0.4001 0.4001)">
			</image>
		</g>
		<g>
			
				<linearGradient id="SVGID_1_" gradientUnits="userSpaceOnUse" x1="27.6089" y1="20.4697" x2="27.6089" y2="136.4692" gradientTransform="matrix(1.1034 0 0 -1.1034 33.5345 150.5871)">
				<stop  offset="0" style="stop-color:#555555"/>
				<stop  offset="0.2736" style="stop-color:#595959"/>
				<stop  offset="0.562" style="stop-color:#666666"/>
				<stop  offset="0.8561" style="stop-color:#7B7B7B"/>
				<stop  offset="1" style="stop-color:#888888"/>
			</linearGradient>
			<path fill="url(#SVGID_1_)" d="M64,0C28.654,0,0,28.654,0,64c0,35.346,28.654,64,64,64c35.346,0,64-28.654,64-64
				C128,28.654,99.346,0,64,0z M64,116c-28.672,0-52-23.327-52-52s23.328-52,52-52c28.672,0,52,23.327,52,52S92.672,116,64,116z"/>
			
				<linearGradient id="SVGID_2_" gradientUnits="userSpaceOnUse" x1="27.6089" y1="20.4697" x2="27.6089" y2="136.4692" gradientTransform="matrix(1.1034 0 0 -1.1034 33.5345 150.5871)">
				<stop  offset="0" style="stop-color:#555555"/>
				<stop  offset="0.2736" style="stop-color:#595959"/>
				<stop  offset="0.562" style="stop-color:#666666"/>
				<stop  offset="0.8561" style="stop-color:#7B7B7B"/>
				<stop  offset="1" style="stop-color:#888888"/>
			</linearGradient>
			<path fill="url(#SVGID_2_)" d="M64,12c-28.672,0-52,23.327-52,52s23.328,52,52,52c28.672,0,52-23.327,52-52S92.672,12,64,12z
				 M87.969,87.958L40.305,88l-0.173-27.25c-8.288-2.335-15.809-5.839-22.183-10.259C23.799,30.583,42.223,16,64,16
				c21.775,0,40.2,14.582,46.052,34.491c-6.344,4.398-13.824,7.89-22.065,10.226L87.969,87.958z"/>
			
				<radialGradient id="SVGID_3_" cx="31.5381" cy="72.4609" r="48" gradientTransform="matrix(1.0833 0 0 -1.0833 29.8336 142.5002)" gradientUnits="userSpaceOnUse">
				<stop  offset="0" style="stop-color:#FFFFFF"/>
				<stop  offset="0.574" style="stop-color:#FFFFFF"/>
				<stop  offset="0.6842" style="stop-color:#FBFBFB"/>
				<stop  offset="0.8001" style="stop-color:#EEEEEE"/>
				<stop  offset="0.9" style="stop-color:#DDDDDD"/>
				<stop  offset="1" style="stop-color:#BBBBBB"/>
			</radialGradient>
			<path fill="url(#SVGID_3_)" d="M64,12c-28.672,0-52,23.327-52,52s23.328,52,52,52c28.672,0,52-23.327,52-52S92.672,12,64,12z
				 M87.969,87.958L40.305,88l-0.173-27.25c-8.288-2.335-15.809-5.839-22.183-10.259C23.799,30.583,42.223,16,64,16
				c21.775,0,40.2,14.582,46.052,34.491c-6.344,4.398-13.824,7.89-22.065,10.226L87.969,87.958z"/>
			
				<linearGradient id="SVGID_4_" gradientUnits="userSpaceOnUse" x1="27.6626" y1="20.4697" x2="27.6626" y2="136.4692" gradientTransform="matrix(1.1034 0 0 -1.1034 33.5345 150.5871)">
				<stop  offset="0" style="stop-color:#555555"/>
				<stop  offset="0.2736" style="stop-color:#595959"/>
				<stop  offset="0.562" style="stop-color:#666666"/>
				<stop  offset="0.8561" style="stop-color:#7B7B7B"/>
				<stop  offset="1" style="stop-color:#888888"/>
			</linearGradient>
			<path fill="url(#SVGID_4_)" d="M40.132,60.75L40.305,88l47.664-0.042l0.018-27.241C80.529,62.831,72.45,64,64,64
				C55.594,64,47.556,62.842,40.132,60.75z"/>
			
				<radialGradient id="SVGID_5_" cx="31.5381" cy="72.4609" r="48" gradientTransform="matrix(1.0833 0 0 -1.0833 29.8336 142.5002)" gradientUnits="userSpaceOnUse">
				<stop  offset="0" style="stop-color:#FFFFFF"/>
				<stop  offset="0.574" style="stop-color:#FFFFFF"/>
				<stop  offset="0.6842" style="stop-color:#FBFBFB"/>
				<stop  offset="0.8001" style="stop-color:#EEEEEE"/>
				<stop  offset="0.9" style="stop-color:#DDDDDD"/>
				<stop  offset="1" style="stop-color:#BBBBBB"/>
			</radialGradient>
			<path fill="url(#SVGID_5_)" d="M40.132,60.75L40.305,88l47.664-0.042l0.018-27.241C80.529,62.831,72.45,64,64,64
				C55.594,64,47.556,62.842,40.132,60.75z"/>
			
				<radialGradient id="SVGID_6_" cx="134.1641" cy="-83.1192" r="40.0297" gradientTransform="matrix(0.7893 0 0 -0.7519 -41.8994 1.4998)" gradientUnits="userSpaceOnUse">
				<stop  offset="0" style="stop-color:#000000"/>
				<stop  offset="1" style="stop-color:#666666"/>
			</radialGradient>
			<path fill="url(#SVGID_6_)" d="M40.132,60.75L40.305,88l47.664-0.042l0.018-27.241C80.529,62.831,72.45,64,64,64
				C55.594,64,47.556,62.842,40.132,60.75z"/>
			
				<linearGradient id="SVGID_7_" gradientUnits="userSpaceOnUse" x1="27.6094" y1="20.4697" x2="27.6094" y2="136.4692" gradientTransform="matrix(1.1034 0 0 -1.1034 33.5345 150.5871)">
				<stop  offset="0" style="stop-color:#555555"/>
				<stop  offset="0.2736" style="stop-color:#595959"/>
				<stop  offset="0.562" style="stop-color:#666666"/>
				<stop  offset="0.8561" style="stop-color:#7B7B7B"/>
				<stop  offset="1" style="stop-color:#888888"/>
			</linearGradient>
			<path fill="url(#SVGID_7_)" d="M64,16c-21.777,0-40.201,14.583-46.051,34.491c6.374,4.42,13.895,7.923,22.183,10.259L40,40
				l48,0.389l-0.014,20.328c8.241-2.335,15.722-5.827,22.065-10.226C104.2,30.582,85.775,16,64,16z"/>
			
				<radialGradient id="SVGID_8_" cx="31.5381" cy="72.4609" r="48" gradientTransform="matrix(1.0833 0 0 -1.0833 29.8336 142.5002)" gradientUnits="userSpaceOnUse">
				<stop  offset="0" style="stop-color:#FFFFFF"/>
				<stop  offset="0.574" style="stop-color:#FFFFFF"/>
				<stop  offset="0.6842" style="stop-color:#FBFBFB"/>
				<stop  offset="0.8001" style="stop-color:#EEEEEE"/>
				<stop  offset="0.9" style="stop-color:#DDDDDD"/>
				<stop  offset="1" style="stop-color:#BBBBBB"/>
			</radialGradient>
			<path fill="url(#SVGID_8_)" d="M64,16c-21.777,0-40.201,14.583-46.051,34.491c6.374,4.42,13.895,7.923,22.183,10.259L40,40
				l48,0.389l-0.014,20.328c8.241-2.335,15.722-5.827,22.065-10.226C104.2,30.582,85.775,16,64,16z"/>
			
				<linearGradient id="SVGID_9_" gradientUnits="userSpaceOnUse" x1="3.4492" y1="70.625" x2="95.5518" y2="70.625" gradientTransform="matrix(1 0 0 -1 14.5 108.9999)">
				<stop  offset="0" style="stop-color:#FFFFFF"/>
				<stop  offset="0.8" style="stop-color:#FFFFFF;stop-opacity:0"/>
			</linearGradient>
			<path fill="url(#SVGID_9_)" d="M64,16c-21.777,0-40.201,14.583-46.051,34.491c6.374,4.42,13.895,7.923,22.183,10.259L40,40
				l48,0.389l-0.014,20.328c8.241-2.335,15.722-5.827,22.065-10.226C104.2,30.582,85.775,16,64,16z"/>
			
				<linearGradient id="SVGID_10_" gradientUnits="userSpaceOnUse" x1="27.6089" y1="20.4697" x2="27.6089" y2="136.4692" gradientTransform="matrix(1.1034 0 0 -1.1034 33.5345 150.5871)">
				<stop  offset="0" style="stop-color:#555555"/>
				<stop  offset="0.2736" style="stop-color:#595959"/>
				<stop  offset="0.562" style="stop-color:#666666"/>
				<stop  offset="0.8561" style="stop-color:#7B7B7B"/>
				<stop  offset="1" style="stop-color:#888888"/>
			</linearGradient>
			<path fill="url(#SVGID_10_)" d="M40,40l0.132,20.75C47.556,62.842,55.594,64,64,64c8.45,0,16.529-1.169,23.986-3.283L88,40.389
				L40,40z"/>
			
				<radialGradient id="SVGID_11_" cx="31.5381" cy="72.4609" r="48" gradientTransform="matrix(1.0833 0 0 -1.0833 29.8336 142.5002)" gradientUnits="userSpaceOnUse">
				<stop  offset="0" style="stop-color:#FFFFFF"/>
				<stop  offset="0.574" style="stop-color:#FFFFFF"/>
				<stop  offset="0.6842" style="stop-color:#FBFBFB"/>
				<stop  offset="0.8001" style="stop-color:#EEEEEE"/>
				<stop  offset="0.9" style="stop-color:#DDDDDD"/>
				<stop  offset="1" style="stop-color:#BBBBBB"/>
			</radialGradient>
			<path fill="url(#SVGID_11_)" d="M40,40l0.132,20.75C47.556,62.842,55.594,64,64,64c8.45,0,16.529-1.169,23.986-3.283L88,40.389
				L40,40z"/>
			
				<radialGradient id="SVGID_12_" cx="134.1641" cy="-83.1192" r="40.0297" gradientTransform="matrix(0.7893 0 0 -0.7519 -41.8994 1.4998)" gradientUnits="userSpaceOnUse">
				<stop  offset="0" style="stop-color:#000000"/>
				<stop  offset="1" style="stop-color:#666666"/>
			</radialGradient>
			<path fill="url(#SVGID_12_)" d="M40,40l0.132,20.75C47.556,62.842,55.594,64,64,64c8.45,0,16.529-1.169,23.986-3.283L88,40.389
				L40,40z"/>
			
				<linearGradient id="SVGID_13_" gradientUnits="userSpaceOnUse" x1="3.4492" y1="57" x2="95.5518" y2="57" gradientTransform="matrix(1 0 0 -1 14.5 108.9999)">
				<stop  offset="0" style="stop-color:#FFFFFF"/>
				<stop  offset="0.8" style="stop-color:#FFFFFF;stop-opacity:0"/>
			</linearGradient>
			<path fill="url(#SVGID_13_)" d="M40,40l0.132,20.75C47.556,62.842,55.594,64,64,64c8.45,0,16.529-1.169,23.986-3.283L88,40.389
				L40,40z"/>
		</g>
	</g>
</g>
</svg>
