<?xml version="1.0" encoding="utf-8"?>
<!-- Generator: Adobe Illustrator 14.0.0, SVG Export Plug-In . SVG Version: 6.00 Build 43363)  -->
<!DOCTYPE svg PUBLIC "-//W3C//DTD SVG 1.1//EN" "http://www.w3.org/Graphics/SVG/1.1/DTD/svg11.dtd">
<svg version="1.1"
	 id="svg3186" sodipodi:version="0.32" xmlns:inkscape="http://www.inkscape.org/namespaces/inkscape" xmlns:rdf="http://www.w3.org/1999/02/22-rdf-syntax-ns#" sodipodi:docbase="/home/david/Progetti/sandbox" xmlns:svg="http://www.w3.org/2000/svg" sodipodi:docname="player_play.svg" inkscape:version="0.45" xmlns:sodipodi="http://sodipodi.sourceforge.net/DTD/sodipodi-0.dtd" sodipodi:modified="true" xmlns:dc="http://purl.org/dc/elements/1.1/" xmlns:cc="http://web.resource.org/cc/" inkscape:output_extension="org.inkscape.output.svg.inkscape"
	 xmlns="http://www.w3.org/2000/svg" xmlns:xlink="http://www.w3.org/1999/xlink" x="0px" y="0px" width="128px" height="128px"
	 viewBox="0 0 128 128" enable-background="new 0 0 128 128" xml:space="preserve">
<sodipodi:namedview  height="128px" width="128px" id="base" inkscape:window-y="112" inkscape:window-x="225" inkscape:window-height="581" inkscape:window-width="792" gridspacingy="8px" gridspacingx="8px" showgrid="true" inkscape:current-layer="layer1" inkscape:document-units="px" inkscape:cy="16.281828" inkscape:cx="62" inkscape:zoom="1" inkscape:pageshadow="2" inkscape:pageopacity="0.0" objecttolerance="10" guidetolerance="10" gridtolerance="10000" pagecolor="#ffffff" borderopacity="1.0" bordercolor="#666666">
	</sodipodi:namedview>
<g id="layer1" inkscape:groupmode="layer" inkscape:label="Layer 1">
	<g>
		<g transform="matrix(1.0833333,0,0,1.0833333,1.1666686,1.1666686)" opacity="0.8">
			
				<image overflow="visible" width="125" height="125" xlink:href="6078E85.png"  transform="matrix(0.9231 0 0 0.9231 0.4001 0.4001)">
			</image>
		</g>
		<g>
			
				<linearGradient id="SVGID_1_" gradientUnits="userSpaceOnUse" x1="27.6089" y1="20.4697" x2="27.6089" y2="136.4692" gradientTransform="matrix(1.1034 0 0 -1.1034 33.5345 150.5871)">
				<stop  offset="0" style="stop-color:#555555"/>
				<stop  offset="0.2736" style="stop-color:#595959"/>
				<stop  offset="0.562" style="stop-color:#666666"/>
				<stop  offset="0.8561" style="stop-color:#7B7B7B"/>
				<stop  offset="1" style="stop-color:#888888"/>
			</linearGradient>
			<path fill="url(#SVGID_1_)" d="M64,0C28.654,0,0,28.654,0,64c0,35.346,28.654,64,64,64c35.346,0,64-28.654,64-64
				C128,28.654,99.346,0,64,0z M64,116c-28.672,0-52-23.327-52-52s23.328-52,52-52c28.672,0,52,23.327,52,52S92.672,116,64,116z"/>
			
				<linearGradient id="SVGID_2_" gradientUnits="userSpaceOnUse" x1="27.6089" y1="20.4697" x2="27.6089" y2="136.4692" gradientTransform="matrix(1.1034 0 0 -1.1034 33.5345 150.5871)">
				<stop  offset="0" style="stop-color:#555555"/>
				<stop  offset="0.2736" style="stop-color:#595959"/>
				<stop  offset="0.562" style="stop-color:#666666"/>
				<stop  offset="0.8561" style="stop-color:#7B7B7B"/>
				<stop  offset="1" style="stop-color:#888888"/>
			</linearGradient>
			<path fill="url(#SVGID_2_)" d="M64,12c-28.672,0-52,23.327-52,52s23.328,52,52,52c28.672,0,52-23.327,52-52S92.672,12,64,12z
				 M96,64L48,96V62.576c-11.423-2.069-21.712-6.302-30.051-12.084C23.799,30.583,42.223,16,64,16
				c21.775,0,40.2,14.582,46.052,34.491c-5.792,4.016-12.531,7.274-19.93,9.59L96,64z"/>
			
				<radialGradient id="SVGID_3_" cx="31.5381" cy="72.4609" r="48" gradientTransform="matrix(1.0833 0 0 -1.0833 29.8336 142.5002)" gradientUnits="userSpaceOnUse">
				<stop  offset="0" style="stop-color:#FFFFFF"/>
				<stop  offset="0.574" style="stop-color:#FFFFFF"/>
				<stop  offset="0.6842" style="stop-color:#FBFBFB"/>
				<stop  offset="0.8001" style="stop-color:#EEEEEE"/>
				<stop  offset="0.9" style="stop-color:#DDDDDD"/>
				<stop  offset="1" style="stop-color:#BBBBBB"/>
			</radialGradient>
			<path fill="url(#SVGID_3_)" d="M64,12c-28.672,0-52,23.327-52,52s23.328,52,52,52c28.672,0,52-23.327,52-52S92.672,12,64,12z
				 M96,64L48,96V62.576c-11.423-2.069-21.712-6.302-30.051-12.084C23.799,30.583,42.223,16,64,16
				c21.775,0,40.2,14.582,46.052,34.491c-5.792,4.016-12.531,7.274-19.93,9.59L96,64z"/>
			
				<linearGradient id="SVGID_4_" gradientUnits="userSpaceOnUse" x1="34.8589" y1="20.4697" x2="34.8589" y2="136.4692" gradientTransform="matrix(1.1034 0 0 -1.1034 33.5345 150.5871)">
				<stop  offset="0" style="stop-color:#555555"/>
				<stop  offset="0.2736" style="stop-color:#595959"/>
				<stop  offset="0.562" style="stop-color:#666666"/>
				<stop  offset="0.8561" style="stop-color:#7B7B7B"/>
				<stop  offset="1" style="stop-color:#888888"/>
			</linearGradient>
			<path fill="url(#SVGID_4_)" d="M48,62.576V96l48-32l-5.878-3.918C82.083,62.598,73.264,64,64,64
				C58.487,64,53.129,63.505,48,62.576z"/>
			
				<radialGradient id="SVGID_5_" cx="31.5381" cy="72.4609" r="48" gradientTransform="matrix(1.0833 0 0 -1.0833 29.8336 142.5002)" gradientUnits="userSpaceOnUse">
				<stop  offset="0" style="stop-color:#FFFFFF"/>
				<stop  offset="0.574" style="stop-color:#FFFFFF"/>
				<stop  offset="0.6842" style="stop-color:#FBFBFB"/>
				<stop  offset="0.8001" style="stop-color:#EEEEEE"/>
				<stop  offset="0.9" style="stop-color:#DDDDDD"/>
				<stop  offset="1" style="stop-color:#BBBBBB"/>
			</radialGradient>
			<path fill="url(#SVGID_5_)" d="M48,62.576V96l48-32l-5.878-3.918C82.083,62.598,73.264,64,64,64
				C58.487,64,53.129,63.505,48,62.576z"/>
			
				<radialGradient id="SVGID_6_" cx="161.4297" cy="-70.5362" r="40.0296" gradientTransform="matrix(0.6667 0 0 -0.7574 -45.4374 11.4679)" gradientUnits="userSpaceOnUse">
				<stop  offset="0" style="stop-color:#000000"/>
				<stop  offset="1" style="stop-color:#666666"/>
			</radialGradient>
			<path fill="url(#SVGID_6_)" d="M48,62.576V96l48-32l-5.878-3.918C82.083,62.598,73.264,64,64,64
				C58.487,64,53.129,63.505,48,62.576z"/>
			
				<linearGradient id="SVGID_7_" gradientUnits="userSpaceOnUse" x1="27.6094" y1="20.4697" x2="27.6094" y2="136.4692" gradientTransform="matrix(1.1034 0 0 -1.1034 33.5345 150.5871)">
				<stop  offset="0" style="stop-color:#555555"/>
				<stop  offset="0.2736" style="stop-color:#595959"/>
				<stop  offset="0.562" style="stop-color:#666666"/>
				<stop  offset="0.8561" style="stop-color:#7B7B7B"/>
				<stop  offset="1" style="stop-color:#888888"/>
			</linearGradient>
			<path fill="url(#SVGID_7_)" d="M64,16c-21.777,0-40.201,14.583-46.051,34.491C26.288,56.273,36.577,60.506,48,62.576V32
				l42.122,28.082c7.398-2.316,14.138-5.575,19.93-9.59C104.2,30.582,85.775,16,64,16z"/>
			
				<radialGradient id="SVGID_8_" cx="31.5381" cy="72.4609" r="48" gradientTransform="matrix(1.0833 0 0 -1.0833 29.8336 142.5002)" gradientUnits="userSpaceOnUse">
				<stop  offset="0" style="stop-color:#FFFFFF"/>
				<stop  offset="0.574" style="stop-color:#FFFFFF"/>
				<stop  offset="0.6842" style="stop-color:#FBFBFB"/>
				<stop  offset="0.8001" style="stop-color:#EEEEEE"/>
				<stop  offset="0.9" style="stop-color:#DDDDDD"/>
				<stop  offset="1" style="stop-color:#BBBBBB"/>
			</radialGradient>
			<path fill="url(#SVGID_8_)" d="M64,16c-21.777,0-40.201,14.583-46.051,34.491C26.288,56.273,36.577,60.506,48,62.576V32
				l42.122,28.082c7.398-2.316,14.138-5.575,19.93-9.59C104.2,30.582,85.775,16,64,16z"/>
			
				<linearGradient id="SVGID_9_" gradientUnits="userSpaceOnUse" x1="3.4492" y1="69.7119" x2="95.5518" y2="69.7119" gradientTransform="matrix(1 0 0 -1 14.5 108.9999)">
				<stop  offset="0" style="stop-color:#FFFFFF"/>
				<stop  offset="0.8" style="stop-color:#FFFFFF;stop-opacity:0"/>
			</linearGradient>
			<path fill="url(#SVGID_9_)" d="M64,16c-21.777,0-40.201,14.583-46.051,34.491C26.288,56.273,36.577,60.506,48,62.576V32
				l42.122,28.082c7.398-2.316,14.138-5.575,19.93-9.59C104.2,30.582,85.775,16,64,16z"/>
			
				<linearGradient id="SVGID_10_" gradientUnits="userSpaceOnUse" x1="32.1958" y1="20.4692" x2="32.1958" y2="136.4692" gradientTransform="matrix(1.1034 0 0 -1.1034 33.5345 150.5871)">
				<stop  offset="0" style="stop-color:#555555"/>
				<stop  offset="0.2736" style="stop-color:#595959"/>
				<stop  offset="0.562" style="stop-color:#666666"/>
				<stop  offset="0.8561" style="stop-color:#7B7B7B"/>
				<stop  offset="1" style="stop-color:#888888"/>
			</linearGradient>
			<path fill="url(#SVGID_10_)" d="M48,62.576C53.129,63.505,58.487,64,64,64c9.264,0,18.083-1.402,26.122-3.918L48,32V62.576z"/>
			
				<radialGradient id="SVGID_11_" cx="31.5381" cy="72.4609" r="48" gradientTransform="matrix(1.0833 0 0 -1.0833 29.8336 142.5002)" gradientUnits="userSpaceOnUse">
				<stop  offset="0" style="stop-color:#FFFFFF"/>
				<stop  offset="0.574" style="stop-color:#FFFFFF"/>
				<stop  offset="0.6842" style="stop-color:#FBFBFB"/>
				<stop  offset="0.8001" style="stop-color:#EEEEEE"/>
				<stop  offset="0.9" style="stop-color:#DDDDDD"/>
				<stop  offset="1" style="stop-color:#BBBBBB"/>
			</radialGradient>
			<path fill="url(#SVGID_11_)" d="M48,62.576C53.129,63.505,58.487,64,64,64c9.264,0,18.083-1.402,26.122-3.918L48,32V62.576z"/>
			
				<radialGradient id="SVGID_12_" cx="161.4297" cy="-70.5362" r="40.0296" gradientTransform="matrix(0.6667 0 0 -0.7574 -45.4374 11.4679)" gradientUnits="userSpaceOnUse">
				<stop  offset="0" style="stop-color:#000000"/>
				<stop  offset="1" style="stop-color:#666666"/>
			</radialGradient>
			<path fill="url(#SVGID_12_)" d="M48,62.576C53.129,63.505,58.487,64,64,64c9.264,0,18.083-1.402,26.122-3.918L48,32V62.576z"/>
			
				<linearGradient id="SVGID_13_" gradientUnits="userSpaceOnUse" x1="3.4492" y1="61" x2="95.5518" y2="61" gradientTransform="matrix(1 0 0 -1 14.5 108.9999)">
				<stop  offset="0" style="stop-color:#FFFFFF"/>
				<stop  offset="0.8" style="stop-color:#FFFFFF;stop-opacity:0"/>
			</linearGradient>
			<path fill="url(#SVGID_13_)" d="M48,62.576C53.129,63.505,58.487,64,64,64c9.264,0,18.083-1.402,26.122-3.918L48,32V62.576z"/>
		</g>
	</g>
</g>
</svg>
