<?xml version="1.0" encoding="utf-8"?>
<!-- Generator: Adobe Illustrator 14.0.0, SVG Export Plug-In . SVG Version: 6.00 Build 43363)  -->
<!DOCTYPE svg PUBLIC "-//W3C//DTD SVG 1.1//EN" "http://www.w3.org/Graphics/SVG/1.1/DTD/svg11.dtd">
<svg version="1.1"
	 id="svg3186" sodipodi:version="0.32" xmlns:inkscape="http://www.inkscape.org/namespaces/inkscape" xmlns:rdf="http://www.w3.org/1999/02/22-rdf-syntax-ns#" sodipodi:docbase="/home/david/Progetti/sandbox" xmlns:svg="http://www.w3.org/2000/svg" sodipodi:docname="player_stop.svg" inkscape:version="0.45" xmlns:sodipodi="http://sodipodi.sourceforge.net/DTD/sodipodi-0.dtd" sodipodi:modified="true" xmlns:dc="http://purl.org/dc/elements/1.1/" xmlns:cc="http://web.resource.org/cc/" inkscape:output_extension="org.inkscape.output.svg.inkscape"
	 xmlns="http://www.w3.org/2000/svg" xmlns:xlink="http://www.w3.org/1999/xlink" x="0px" y="0px" width="128px" height="128px"
	 viewBox="0 0 128 128" enable-background="new 0 0 128 128" xml:space="preserve">
<sodipodi:namedview  height="128px" width="128px" id="base" inkscape:window-y="112" inkscape:window-x="225" inkscape:window-height="581" inkscape:window-width="792" gridspacingy="8px" gridspacingx="8px" showgrid="true" inkscape:current-layer="layer1" inkscape:document-units="px" inkscape:cy="56.281828" inkscape:cx="62" inkscape:zoom="4" inkscape:pageshadow="2" inkscape:pageopacity="0.0" objecttolerance="10" guidetolerance="10" gridtolerance="10000" pagecolor="#ffffff" borderopacity="1.0" bordercolor="#666666">
	</sodipodi:namedview>
<g id="layer1" inkscape:groupmode="layer" inkscape:label="Layer 1">
	<g>
		<g transform="matrix(1.0833333,0,0,1.0833333,1.1666686,1.1666686)" opacity="0.8">
			
				<image overflow="visible" width="125" height="125" xlink:href="60FE2C75.png"  transform="matrix(0.9231 0 0 0.9231 0.4001 0.4001)">
			</image>
		</g>
		<g>
			
				<linearGradient id="SVGID_1_" gradientUnits="userSpaceOnUse" x1="-2.7705" y1="763.0752" x2="-2.7705" y2="647.0703" gradientTransform="matrix(1.1034 0 0 1.1034 67.057 -713.9761)">
				<stop  offset="0" style="stop-color:#555555"/>
				<stop  offset="0.2736" style="stop-color:#595959"/>
				<stop  offset="0.562" style="stop-color:#666666"/>
				<stop  offset="0.8561" style="stop-color:#7B7B7B"/>
				<stop  offset="1" style="stop-color:#888888"/>
			</linearGradient>
			<path fill="url(#SVGID_1_)" d="M64,0C28.654,0,0,28.654,0,64c0,35.346,28.654,64,64,64c35.346,0,64-28.654,64-64
				C128,28.654,99.346,0,64,0z M64,116c-28.672,0-52-23.327-52-52s23.328-52,52-52s52,23.327,52,52S92.672,116,64,116z"/>
			
				<linearGradient id="SVGID_2_" gradientUnits="userSpaceOnUse" x1="-2.7705" y1="763.0752" x2="-2.7705" y2="647.0703" gradientTransform="matrix(1.1034 0 0 1.1034 67.057 -713.9761)">
				<stop  offset="0" style="stop-color:#555555"/>
				<stop  offset="0.2736" style="stop-color:#595959"/>
				<stop  offset="0.562" style="stop-color:#666666"/>
				<stop  offset="0.8561" style="stop-color:#7B7B7B"/>
				<stop  offset="1" style="stop-color:#888888"/>
			</linearGradient>
			<path fill="url(#SVGID_2_)" d="M64,12c-28.672,0-52,23.327-52,52s23.328,52,52,52s52-23.327,52-52S92.672,12,64,12z
				 M87.988,87.958L72.102,88L72.05,63.631C69.408,63.865,66.727,64,64,64c-2.711,0-5.378-0.133-8.005-0.365l-0.006,24.323
				L40.102,88l-0.058-27.274c-8.253-2.336-15.744-5.83-22.095-10.234C23.799,30.583,42.223,16,64,16
				c21.775,0,40.2,14.582,46.052,34.491c-6.342,4.397-13.819,7.888-22.057,10.223L87.988,87.958z"/>
			
				<radialGradient id="SVGID_3_" cx="5.085" cy="717.084" r="48.0017" gradientTransform="matrix(1.0833 0 0 1.0833 58.4916 -712.818)" gradientUnits="userSpaceOnUse">
				<stop  offset="0" style="stop-color:#FFFFFF"/>
				<stop  offset="0.574" style="stop-color:#FFFFFF"/>
				<stop  offset="0.6842" style="stop-color:#FBFBFB"/>
				<stop  offset="0.8001" style="stop-color:#EEEEEE"/>
				<stop  offset="0.9" style="stop-color:#DDDDDD"/>
				<stop  offset="1" style="stop-color:#BBBBBB"/>
			</radialGradient>
			<path fill="url(#SVGID_3_)" d="M64,12c-28.672,0-52,23.327-52,52s23.328,52,52,52s52-23.327,52-52S92.672,12,64,12z
				 M87.988,87.958L72.102,88L72.05,63.631C69.408,63.865,66.727,64,64,64c-2.711,0-5.378-0.133-8.005-0.365l-0.006,24.323
				L40.102,88l-0.058-27.274c-8.253-2.336-15.744-5.83-22.095-10.234C23.799,30.583,42.223,16,64,16
				c21.775,0,40.2,14.582,46.052,34.491c-6.342,4.397-13.819,7.888-22.057,10.223L87.988,87.958z"/>
			
				<linearGradient id="SVGID_4_" gradientUnits="userSpaceOnUse" x1="-17.2534" y1="763.0752" x2="-17.2534" y2="647.0703" gradientTransform="matrix(1.1034 0 0 1.1034 67.057 -713.9761)">
				<stop  offset="0" style="stop-color:#555555"/>
				<stop  offset="0.2736" style="stop-color:#595959"/>
				<stop  offset="0.562" style="stop-color:#666666"/>
				<stop  offset="0.8561" style="stop-color:#7B7B7B"/>
				<stop  offset="1" style="stop-color:#888888"/>
			</linearGradient>
			<path fill="url(#SVGID_4_)" d="M40.102,88l15.887-0.042l0.006-24.323c-5.552-0.489-10.895-1.479-15.951-2.91L40.102,88z"/>
			
				<radialGradient id="SVGID_5_" cx="5.0845" cy="717.084" r="48.0017" gradientTransform="matrix(1.0833 0 0 1.0833 58.4916 -712.818)" gradientUnits="userSpaceOnUse">
				<stop  offset="0" style="stop-color:#FFFFFF"/>
				<stop  offset="0.574" style="stop-color:#FFFFFF"/>
				<stop  offset="0.6842" style="stop-color:#FBFBFB"/>
				<stop  offset="0.8001" style="stop-color:#EEEEEE"/>
				<stop  offset="0.9" style="stop-color:#DDDDDD"/>
				<stop  offset="1" style="stop-color:#BBBBBB"/>
			</radialGradient>
			<path fill="url(#SVGID_5_)" d="M40.102,88l15.887-0.042l0.006-24.323c-5.552-0.489-10.895-1.479-15.951-2.91L40.102,88z"/>
			
				<radialGradient id="SVGID_6_" cx="1371.3271" cy="1017.9199" r="40.0119" gradientTransform="matrix(0.2631 0 0 0.7519 -312.7963 -701.374)" gradientUnits="userSpaceOnUse">
				<stop  offset="0" style="stop-color:#000000"/>
				<stop  offset="1" style="stop-color:#666666"/>
			</radialGradient>
			<path fill="url(#SVGID_6_)" d="M40.102,88l15.887-0.042l0.006-24.323c-5.552-0.489-10.895-1.479-15.951-2.91L40.102,88z"/>
			
				<linearGradient id="SVGID_7_" gradientUnits="userSpaceOnUse" x1="11.7505" y1="763.0752" x2="11.7505" y2="647.0703" gradientTransform="matrix(1.1034 0 0 1.1034 67.057 -713.9761)">
				<stop  offset="0" style="stop-color:#555555"/>
				<stop  offset="0.2736" style="stop-color:#595959"/>
				<stop  offset="0.562" style="stop-color:#666666"/>
				<stop  offset="0.8561" style="stop-color:#7B7B7B"/>
				<stop  offset="1" style="stop-color:#888888"/>
			</linearGradient>
			<path fill="url(#SVGID_7_)" d="M72.102,88l15.887-0.042l0.007-27.244c-5.054,1.433-10.396,2.425-15.945,2.917L72.102,88z"/>
			
				<radialGradient id="SVGID_8_" cx="5.0845" cy="717.084" r="48.0017" gradientTransform="matrix(1.0833 0 0 1.0833 58.4916 -712.818)" gradientUnits="userSpaceOnUse">
				<stop  offset="0" style="stop-color:#FFFFFF"/>
				<stop  offset="0.574" style="stop-color:#FFFFFF"/>
				<stop  offset="0.6842" style="stop-color:#FBFBFB"/>
				<stop  offset="0.8001" style="stop-color:#EEEEEE"/>
				<stop  offset="0.9" style="stop-color:#DDDDDD"/>
				<stop  offset="1" style="stop-color:#BBBBBB"/>
			</radialGradient>
			<path fill="url(#SVGID_8_)" d="M72.102,88l15.887-0.042l0.007-27.244c-5.054,1.433-10.396,2.425-15.945,2.917L72.102,88z"/>
			
				<radialGradient id="SVGID_9_" cx="1371.3271" cy="1017.9199" r="40.0119" gradientTransform="matrix(0.2631 0 0 0.7519 -280.7963 -701.374)" gradientUnits="userSpaceOnUse">
				<stop  offset="0" style="stop-color:#000000"/>
				<stop  offset="1" style="stop-color:#666666"/>
			</radialGradient>
			<path fill="url(#SVGID_9_)" d="M72.102,88l15.887-0.042l0.007-27.244c-5.054,1.433-10.396,2.425-15.945,2.917L72.102,88z"/>
			
				<linearGradient id="SVGID_10_" gradientUnits="userSpaceOnUse" x1="-2.77" y1="763.0752" x2="-2.77" y2="647.0703" gradientTransform="matrix(1.1034 0 0 1.1034 67.057 -713.9761)">
				<stop  offset="0" style="stop-color:#555555"/>
				<stop  offset="0.2736" style="stop-color:#595959"/>
				<stop  offset="0.562" style="stop-color:#666666"/>
				<stop  offset="0.8561" style="stop-color:#7B7B7B"/>
				<stop  offset="1" style="stop-color:#888888"/>
			</linearGradient>
			<path fill="url(#SVGID_10_)" d="M64,16c-21.777,0-40.201,14.583-46.051,34.491c6.351,4.404,13.842,7.898,22.095,10.234L40,40
				l16,0.389l-0.005,23.246C58.622,63.867,61.289,64,64,64c2.727,0,5.408-0.135,8.05-0.369L72,40l16,0.389l-0.005,20.325
				c8.237-2.335,15.715-5.826,22.057-10.223C104.2,30.582,85.775,16,64,16z"/>
			
				<radialGradient id="SVGID_11_" cx="5.085" cy="717.084" r="48.0012" gradientTransform="matrix(1.0833 0 0 1.0833 58.4916 -712.818)" gradientUnits="userSpaceOnUse">
				<stop  offset="0" style="stop-color:#FFFFFF"/>
				<stop  offset="0.574" style="stop-color:#FFFFFF"/>
				<stop  offset="0.6842" style="stop-color:#FBFBFB"/>
				<stop  offset="0.8001" style="stop-color:#EEEEEE"/>
				<stop  offset="0.9" style="stop-color:#DDDDDD"/>
				<stop  offset="1" style="stop-color:#BBBBBB"/>
			</radialGradient>
			<path fill="url(#SVGID_11_)" d="M64,16c-21.777,0-40.201,14.583-46.051,34.491c6.351,4.404,13.842,7.898,22.095,10.234L40,40
				l16,0.389l-0.005,23.246C58.622,63.867,61.289,64,64,64c2.727,0,5.408-0.135,8.05-0.369L72,40l16,0.389l-0.005,20.325
				c8.237-2.335,15.715-5.826,22.057-10.223C104.2,30.582,85.775,16,64,16z"/>
			
				<linearGradient id="SVGID_12_" gradientUnits="userSpaceOnUse" x1="-5.0508" y1="748" x2="87.0518" y2="748" gradientTransform="matrix(1 0 0 1 23 -708)">
				<stop  offset="0" style="stop-color:#FFFFFF"/>
				<stop  offset="0.8" style="stop-color:#FFFFFF;stop-opacity:0"/>
			</linearGradient>
			<path fill="url(#SVGID_12_)" d="M64,16c-21.777,0-40.201,14.583-46.051,34.491c6.351,4.404,13.842,7.898,22.095,10.234L40,40
				l16,0.389l-0.005,23.246C58.622,63.867,61.289,64,64,64c2.727,0,5.408-0.135,8.05-0.369L72,40l16,0.389l-0.005,20.325
				c8.237-2.335,15.715-5.826,22.057-10.223C104.2,30.582,85.775,16,64,16z"/>
			
				<linearGradient id="SVGID_13_" gradientUnits="userSpaceOnUse" x1="-17.271" y1="763.0752" x2="-17.271" y2="647.0703" gradientTransform="matrix(1.1034 0 0 1.1034 67.057 -713.9761)">
				<stop  offset="0" style="stop-color:#555555"/>
				<stop  offset="0.2736" style="stop-color:#595959"/>
				<stop  offset="0.562" style="stop-color:#666666"/>
				<stop  offset="0.8561" style="stop-color:#7B7B7B"/>
				<stop  offset="1" style="stop-color:#888888"/>
			</linearGradient>
			<path fill="url(#SVGID_13_)" d="M40,40l0.044,20.726c5.056,1.431,10.399,2.42,15.951,2.91L56,40.389L40,40z"/>
			
				<radialGradient id="SVGID_14_" cx="5.0855" cy="717.084" r="48.008" gradientTransform="matrix(1.0833 0 0 1.0833 58.4916 -712.818)" gradientUnits="userSpaceOnUse">
				<stop  offset="0" style="stop-color:#FFFFFF"/>
				<stop  offset="0.574" style="stop-color:#FFFFFF"/>
				<stop  offset="0.6842" style="stop-color:#FBFBFB"/>
				<stop  offset="0.8001" style="stop-color:#EEEEEE"/>
				<stop  offset="0.9" style="stop-color:#DDDDDD"/>
				<stop  offset="1" style="stop-color:#BBBBBB"/>
			</radialGradient>
			<path fill="url(#SVGID_14_)" d="M40,40l0.044,20.726c5.056,1.431,10.399,2.42,15.951,2.91L56,40.389L40,40z"/>
			
				<radialGradient id="SVGID_15_" cx="1371.3271" cy="1017.9199" r="40.0119" gradientTransform="matrix(0.2631 0 0 0.7519 -312.7963 -701.374)" gradientUnits="userSpaceOnUse">
				<stop  offset="0" style="stop-color:#000000"/>
				<stop  offset="1" style="stop-color:#666666"/>
			</radialGradient>
			<path fill="url(#SVGID_15_)" d="M40,40l0.044,20.726c5.056,1.431,10.399,2.42,15.951,2.91L56,40.389L40,40z"/>
			
				<linearGradient id="SVGID_16_" gradientUnits="userSpaceOnUse" x1="-5.0508" y1="759.8174" x2="87.0518" y2="759.8174" gradientTransform="matrix(1 0 0 1 23 -708)">
				<stop  offset="0" style="stop-color:#FFFFFF"/>
				<stop  offset="0.8" style="stop-color:#FFFFFF;stop-opacity:0"/>
			</linearGradient>
			<path fill="url(#SVGID_16_)" d="M40,40l0.044,20.726c5.056,1.431,10.399,2.42,15.951,2.91L56,40.389L40,40z"/>
			
				<linearGradient id="SVGID_17_" gradientUnits="userSpaceOnUse" x1="11.73" y1="763.0752" x2="11.73" y2="647.0703" gradientTransform="matrix(1.1034 0 0 1.1034 67.057 -713.9761)">
				<stop  offset="0" style="stop-color:#555555"/>
				<stop  offset="0.2736" style="stop-color:#595959"/>
				<stop  offset="0.562" style="stop-color:#666666"/>
				<stop  offset="0.8561" style="stop-color:#7B7B7B"/>
				<stop  offset="1" style="stop-color:#888888"/>
			</linearGradient>
			<path fill="url(#SVGID_17_)" d="M72,40l0.05,23.631c5.55-0.492,10.892-1.484,15.945-2.917L88,40.389L72,40z"/>
			
				<radialGradient id="SVGID_18_" cx="5.085" cy="717.084" r="48.0006" gradientTransform="matrix(1.0833 0 0 1.0833 58.4916 -712.818)" gradientUnits="userSpaceOnUse">
				<stop  offset="0" style="stop-color:#FFFFFF"/>
				<stop  offset="0.574" style="stop-color:#FFFFFF"/>
				<stop  offset="0.6842" style="stop-color:#FBFBFB"/>
				<stop  offset="0.8001" style="stop-color:#EEEEEE"/>
				<stop  offset="0.9" style="stop-color:#DDDDDD"/>
				<stop  offset="1" style="stop-color:#BBBBBB"/>
			</radialGradient>
			<path fill="url(#SVGID_18_)" d="M72,40l0.05,23.631c5.55-0.492,10.892-1.484,15.945-2.917L88,40.389L72,40z"/>
			
				<radialGradient id="SVGID_19_" cx="1371.3271" cy="1017.9199" r="40.0119" gradientTransform="matrix(0.2631 0 0 0.7519 -280.7963 -701.374)" gradientUnits="userSpaceOnUse">
				<stop  offset="0" style="stop-color:#000000"/>
				<stop  offset="1" style="stop-color:#666666"/>
			</radialGradient>
			<path fill="url(#SVGID_19_)" d="M72,40l0.05,23.631c5.55-0.492,10.892-1.484,15.945-2.917L88,40.389L72,40z"/>
			
				<linearGradient id="SVGID_20_" gradientUnits="userSpaceOnUse" x1="-5.0508" y1="759.8154" x2="87.0518" y2="759.8154" gradientTransform="matrix(1 0 0 1 23 -708)">
				<stop  offset="0" style="stop-color:#FFFFFF"/>
				<stop  offset="0.8" style="stop-color:#FFFFFF;stop-opacity:0"/>
			</linearGradient>
			<path fill="url(#SVGID_20_)" d="M72,40l0.05,23.631c5.55-0.492,10.892-1.484,15.945-2.917L88,40.389L72,40z"/>
		</g>
	</g>
</g>
</svg>
